<?xml version="1.0" encoding="UTF-8" standalone="no"?>
<svg
   xmlns:dc="http://purl.org/dc/elements/1.1/"
   xmlns:cc="http://creativecommons.org/ns#"
   xmlns:rdf="http://www.w3.org/1999/02/22-rdf-syntax-ns#"
   xmlns:svg="http://www.w3.org/2000/svg"
   xmlns="http://www.w3.org/2000/svg"
   xmlns:sodipodi="http://sodipodi.sourceforge.net/DTD/sodipodi-0.dtd"
   xmlns:inkscape="http://www.inkscape.org/namespaces/inkscape"
   width="2500mm"
   height="2500mm"
   viewBox="0 0 2500 2500"
   version="1.1"
   id="svg843"
   inkscape:version="1.0.2 (e86c870879, 2021-01-15)"
   sodipodi:docname="Sherpa.svg">
  <defs
     id="defs837" />
  <sodipodi:namedview
     id="base"
     pagecolor="#ffffff"
     bordercolor="#666666"
     borderopacity="1.0"
     inkscape:pageopacity="0.0"
     inkscape:pageshadow="2"
     inkscape:zoom="0.077441738"
     inkscape:cx="4496.3623"
     inkscape:cy="4404.1927"
     inkscape:document-units="px"
     inkscape:current-layer="layer1"
     inkscape:document-rotation="0"
     showgrid="false"
     inkscape:window-width="1920"
     inkscape:window-height="1011"
     inkscape:window-x="0"
     inkscape:window-y="0"
     inkscape:window-maximized="1" />
  <metadata
     id="metadata840">
    <rdf:RDF>
      <cc:Work
         rdf:about="">
        <dc:format>image/svg+xml</dc:format>
        <dc:type
           rdf:resource="http://purl.org/dc/dcmitype/StillImage" />
        <dc:title></dc:title>
      </cc:Work>
    </rdf:RDF>
  </metadata>
  <g
     inkscape:label="Ebene 1"
     inkscape:groupmode="layer"
     id="layer1">
    <path
       id="path"
       d="m 749.17502,1862.4444 c 0,-25.9248 0.73022,-51.6027 0.4868,-77.2808 -0.4868,-6.4196 -3.65105,-13.5797 -9.7361,-16.2958 -2.67744,-3.4566 -8.51908,-1.7282 -5.35485,2.9629 2.43402,11.8514 4.86804,23.7028 7.30206,35.3073 1.46044,5.4318 1.94724,10.8638 3.40764,16.0487 0.2434,3.2098 3.40764,8.6416 0.7302,10.37 -4.62464,0 -9.73609,-4.1973 -13.63053,-1.7284 -0.9736,4.1975 1.21701,8.6417 1.94723,12.8391 1.94721,6.9132 4.13783,14.0735 3.65103,21.4805 -0.24341,3.7037 -0.73022,8.1479 -3.16424,11.1108 -3.40762,-1.2344 -4.13783,-6.1726 -7.78888,-7.4071 -5.11145,-1.7283 -9.4927,2.9628 -14.60416,2.9628 -4.13784,0.7407 -7.54548,2.9629 -11.68331,3.4567 -4.62466,2.716 -4.86806,-3.9504 -6.08507,-6.9133 -1.94722,-5.1849 -4.13784,-10.6169 -5.59826,-16.0488 -0.48681,-5.9257 -6.81528,-7.654 -11.43992,-9.1355 -6.81528,-2.7158 -13.87396,-5.1848 -20.68922,-7.9008 -5.11146,0.2469 -7.54549,-5.185 -4.13785,-8.8886 4.38124,-12.5921 9.00589,-25.1843 13.38714,-37.7762 1.21702,-6.1728 -2.43403,-12.0984 -7.05867,-15.3082 -19.47222,-17.7769 -38.21422,-36.5417 -56.95622,-55.0596 0.73022,-4.938 6.57188,-6.6663 9.2493,-10.6167 9.73611,-8.6417 21.66284,-14.8143 29.20832,-25.6781 5.11145,-7.1602 7.78887,-16.0487 8.51909,-24.6903 0.73021,-6.4195 6.81527,-9.6293 10.95312,-13.5797 14.84755,-12.3453 29.69511,-24.9374 46.0031,-35.3074 4.38123,-2.9629 8.51908,-7.1601 8.27568,-12.8389 0.48681,-5.4319 -4.38125,-7.6541 -8.27568,-9.6293 -6.32848,-4.938 -9.24931,-13.0859 -9.73611,-20.7398 -1.46042,-6.4197 -5.11145,2.222 -8.27569,0.7406 -1.21702,-4.6912 -0.2434,-9.8761 -0.4868,-14.8143 0,-4.9381 1.46041,-11.6043 0.4868,-15.5549 -4.62465,1.9751 -8.7625,4.4442 -13.14375,6.9132 -2.43402,-2.222 1.46041,-6.6663 1.46041,-9.6292 11.43994,-40.986 22.63645,-82.219 34.07637,-123.2049 -4.13784,3.4565 -6.81526,8.3946 -10.2229,12.592 -5.59826,7.654 -12.17013,15.0612 -13.38715,24.9373 -1.21702,6.6664 -0.97361,13.3329 -1.46041,19.9992 -3.65103,1.2345 -6.57187,-4.6912 -8.5191,-7.654 -4.13784,-8.148 -3.89443,-18.2709 0.48681,-26.4187 5.11145,-10.37 10.70972,-20.2462 16.30798,-30.3692 -3.89445,-4.4443 -10.70973,0.2469 -14.60416,-4.4443 -1.94722,-5.185 5.35486,-7.654 7.54547,-11.6045 5.59827,-6.1726 11.92674,-11.8513 18.98541,-16.2956 4.86805,-3.2098 5.59826,-9.3825 4.86805,-14.8143 -0.73019,-9.3823 -1.21701,-18.7646 -1.94722,-28.1469 -0.73021,-9.3826 -1.70381,-18.7647 -3.16423,-27.9002 -2.43402,3.9503 -2.67743,8.6416 -4.38125,12.839 -3.40763,11.1107 -6.57187,21.9744 -10.22291,33.0852 -6.08505,1.4814 -1.94722,-7.6542 -4.86805,-10.3701 -1.94721,1.9753 -4.86805,4.4443 -7.05867,1.2344 -3.40764,-3.7034 -2.92083,-9.1353 -5.11146,-13.3327 -3.40764,-10.3699 -6.08507,-21.4806 -4.38123,-32.3443 0.97359,-8.6418 3.89442,-17.0365 4.86803,-25.4312 -4.86803,-2.469 -10.70971,-2.716 -15.57775,-5.4319 -7.54549,-3.2098 -15.82119,-8.6416 -17.52499,-17.5302 -0.97362,-5.4319 0.9736,-11.1106 3.65103,-15.5548 4.38125,-8.3948 13.38714,-14.0737 14.36076,-24.1966 1.46041,-8.1479 -2.43403,-16.0488 -1.94723,-23.9498 0.2434,-17.5302 6.81527,-34.8135 18.2552,-47.6525 4.86806,-5.1849 10.70971,-8.8884 17.03818,-12.3451 6.08507,-3.9504 11.19653,-10.6169 10.70972,-18.2708 0,-4.4443 -1.21702,-8.6418 -2.43402,-12.8391 -4.86806,-2.7159 -10.46633,0 -15.57777,-0.9877 -6.32847,0 -12.90034,0 -19.22881,0.4938 -8.7625,-11.1107 -22.14963,-18.2708 -28.96491,-31.1097 -3.65104,-7.4072 -3.40764,-15.8019 -4.62465,-23.7029 -1.94723,-16.0488 -3.89444,-32.0975 -4.13784,-48.39321 -0.24341,-10.12301 4.62465,-19.50537 7.54547,-28.88774 -0.4868,-5.18497 -6.81527,-6.91326 -9.4927,-10.61684 -4.38123,-3.9505 -8.7625,-9.87619 -6.81526,-16.29563 1.94721,-6.91335 8.27568,-11.35757 13.14372,-16.29571 10.46632,-9.38228 23.85347,-14.56734 36.0236,-21.23368 29.4517,-15.30807 58.66003,-30.86305 88.84194,-44.68965 9.2493,-3.20976 19.47222,-1.9752 28.96492,-0.49382 13.38714,2.71593 25.55728,8.64163 38.21421,13.33286 3.89447,-2.96284 7.54545,-8.64163 13.14375,-7.40716 7.05863,0.74073 12.65693,5.92569 19.47216,7.40716 3.16425,-4.44432 5.3549,-9.87619 10.46638,-12.59213 8.51906,-5.43188 18.74195,-4.69114 28.23463,-5.67879 6.32852,-0.24691 12.41353,-1.72829 18.25524,-3.70358 26.28749,-6.66634 53.06178,-12.09831 79.59267,-17.77709 5.1114,-1.48138 9.97944,1.72838 9.24924,7.16025 12.9003,59.75072 19.9591,120.98291 37.7274,179.74606 1.9473,6.4196 4.1379,12.8389 6.3285,19.2585 0.4869,-5.4319 -1.7038,-10.8638 -2.1906,-16.2956 -4.8681,-26.17188 -9.4927,-52.5906 -14.3608,-78.76242 2.9209,-5.18495 5.3549,3.9505 5.8417,6.41953 11.44,31.60369 22.6365,63.45429 34.3197,95.05799 1.7038,4.4442 6.3285,-1.2346 3.8945,-4.1974 -4.1379,-13.3328 -7.7889,-26.6656 -11.6833,-40.24534 -9.7361,-33.57889 -19.2288,-67.15779 -28.9649,-100.48987 3.1642,-2.46902 5.5982,4.19742 8.7625,5.18497 39.1878,32.59134 78.3756,65.18268 117.5634,97.5271 4.1379,-1.97529 2.1906,-8.1479 4.3813,-11.85139 4.6247,-18.024 9.7361,-36.29492 17.525,-53.08437 3.1642,-4.69114 9.4927,-5.18496 14.6041,-4.69114 5.8416,2.46902 6.8153,-4.93815 7.0587,-8.88855 1.7037,-8.39472 3.4076,-16.54262 4.6246,-24.93735 -5.1113,-3.20977 -11.4399,-1.9752 -16.7947,-2.96285 -6.3285,-0.49373 -6.0851,-7.65399 -5.8417,-12.34512 0.4868,-3.7036 1.217,-12.59214 -4.6246,-11.6045 -3.8945,1.23447 -4.3813,-3.95049 -6.5719,-6.17261 -3.4076,-5.9257 -10.4663,-7.90099 -16.7949,-8.64163 -5.8416,-0.74073 -11.6832,-0.24691 -17.2814,-0.98765 -1.9473,-1.72829 -0.9737,-8.39472 -4.8681,-4.69114 -2.9209,1.48138 -7.3021,7.16017 -9.9796,4.93806 0,-2.71595 3.6511,-10.12302 -1.7038,-7.40718 -5.8417,0.98765 -7.5455,-5.9256 -9.9795,-9.62919 -4.1378,-6.66644 -8.7625,-14.56734 -6.5719,-22.71516 1.2171,-4.93809 3.8945,-9.87616 2.4341,-15.06114 -2.6775,-5.43189 3.8944,-8.39474 7.5454,-10.61688 3.8945,-3.70355 -7.7888,-10.86377 -0.2434,-11.11067 4.8681,0.49381 9.4927,-1.23452 12.9004,-4.93807 4.8681,-5.18498 7.302,-12.0983 12.6569,-17.03638 3.4077,-3.70355 7.0586,-7.16022 10.7097,-10.61687 2.9209,0.49382 3.4077,8.39475 6.0851,2.71594 2.9208,-3.20975 4.1379,-8.14782 8.519,-9.87614 -0.2434,3.95044 3.6512,7.1602 6.572,3.70355 13.8739,-5.43189 27.7478,-11.11068 41.6218,-17.03636 7.5456,-2.96286 15.5777,-4.44428 23.61,-3.95048 9.9796,0.2469 18.9856,-5.18499 26.0441,-12.0983 8.7626,-8.64163 14.8477,-20.24611 16.308,-32.34441 2.1906,-14.81424 7.3021,-29.13463 12.4135,-43.20816 5.3549,-14.81423 13.1437,-28.64085 19.959,-42.96128 2.6775,-4.93808 6.8153,-8.88853 10.4664,-13.08591 4.3812,-3.95044 10.7098,-4.19736 16.0646,-6.17259 17.2815,-5.18498 34.5631,-9.62924 52.575,-11.11067 11.6832,-1.23453 23.3666,-1.97524 35.0499,-3.20975 5.1115,1.23451 -2.1907,6.41949 -3.6509,8.39472 -1.9474,4.19738 4.3811,-0.24689 6.085,-0.4938 9.2492,-3.70356 18.742,-7.90092 28.7215,-7.65402 12.4134,-0.2469 25.0704,0.24689 37.4839,-0.49382 8.2757,-2.22212 16.7948,-6.9133 25.5574,-3.95045 8.519,3.45666 12.6567,12.3452 17.7683,19.5054 l 10.9531,17.03638 c 0.9736,5.43188 -6.0852,4.19736 -9.2493,2.96284 -8.5191,-2.46903 -17.0381,-4.44427 -25.5573,-6.66641 2.434,3.70357 7.5455,4.19738 10.7098,6.91331 13.8739,8.14784 27.2611,17.7771 37.484,30.61609 3.651,2.46903 0,4.19737 -2.6774,3.20975 -8.7626,0 -17.2817,-1.48143 -26.0441,-1.97522 -3.8945,-1.23453 -1.9473,3.95046 0.9736,3.20974 18.4985,6.91331 36.7538,13.82662 55.2523,20.98684 1.9473,-4.44427 7.3021,-6.1726 11.4399,-3.70356 5.5982,1.23451 11.9268,4.44427 13.3871,10.61684 -0.2434,2.96286 1.9473,7.65402 4.138,2.96286 1.2168,-3.45667 1.4603,-11.35756 7.0586,-8.14782 14.6041,3.95044 29.4518,7.654 44.0559,11.60445 3.8945,3.95048 8.2757,8.14784 13.874,8.88856 6.5718,1.23451 13.3871,-0.49381 19.2288,-3.45666 4.6246,0.74071 6.0849,7.16021 7.302,10.36996 -0.7302,2.71594 -7.5454,3.20975 -5.8417,5.67879 5.3549,1.23452 10.9532,1.23452 16.5515,1.97523 4.1377,0.49382 8.0322,0.98762 12.17,1.72832 -0.2434,2.71595 -6.8152,8.88855 -0.2434,7.65403 3.4077,-0.74071 8.0323,-3.95047 10.4663,-0.2469 2.4341,4.93808 2.6775,11.60449 8.0323,14.56732 4.8681,2.71596 7.5455,8.39474 6.3286,13.82663 -1.4605,2.96285 -3.4078,8.39474 1.7037,8.14783 4.868,0.74071 5.1115,6.17259 1.7039,8.88856 -3.1642,5.43187 2.6774,8.88853 5.3549,12.59209 1.7038,4.44426 0.9735,9.62924 2.4339,14.32042 0.9736,5.43188 1.217,11.85139 -2.9208,16.04876 -2.6774,3.20975 -11.1965,4.44427 -6.8153,10.12305 1.7039,2.22214 1.9473,7.65403 -2.1907,4.69117 -4.8679,-2.96283 -7.302,2.96286 -8.7624,6.66642 -4.1379,7.40712 -8.0323,15.06111 -11.9267,22.46829 -3.4077,4.1973 -9.2493,4.1973 -13.8739,6.41942 -9.2494,3.45668 -18.4987,6.41952 -27.5045,9.87619 -1.4605,2.22212 2.4339,7.40709 -2.6775,6.17262 -7.5454,0 -14.8476,0.24691 -22.393,0.24691 -3.4076,0.24691 -7.0587,0 -10.2229,0.74064 -10.2229,6.17262 -23.1232,5.43197 -34.0763,1.9753 -8.7626,-2.46903 -18.0118,-2.96285 -27.0178,-1.9753 -6.8152,2.46912 -9.0059,10.37002 -10.4663,16.78955 -1.7038,10.36992 0,20.73994 -0.9735,30.86295 -0.4869,7.654 -0.4869,15.30807 0.2434,22.96206 0,7.16026 -4.3813,14.81425 -11.6833,16.0488 -5.8418,1.23448 -12.1702,-0.49381 -17.2817,-3.20975 -5.3549,0.49382 -5.3549,7.16016 -6.3284,11.35757 -2.1907,15.30798 -12.1702,27.40629 -22.3931,38.27012 -3.4076,3.45658 -7.0586,7.16017 -7.5456,12.34512 -0.7301,5.67879 -1.7036,11.8514 -5.5982,16.54259 -7.3021,9.3823 -18.742,15.0611 -30.4253,16.2957 -6.0851,0.7407 -11.4399,-2.469 -17.0381,-4.1974 -11.9267,-4.6912 -23.3667,-10.3699 -35.05,-15.55493 -4.6247,2.22213 -7.0587,7.16013 -10.4664,10.61683 2.1907,5.185 8.2757,6.9133 11.4399,11.3576 4.6247,4.6911 9.7361,9.8762 11.6834,16.5425 0.7303,6.9133 0,14.5673 4.1378,20.4931 5.3549,9.3824 12.6571,17.5302 18.4987,26.6656 19.4722,26.6656 38.9443,53.5782 58.1731,80.2437 2.6775,4.1975 6.0852,8.3949 7.5456,13.086 -1.7038,5.185 -8.0324,5.9257 -11.1966,9.6293 -8.7624,6.6663 -18.0118,12.592 -26.7742,19.2584 -3.6511,3.4568 -4.8681,9.1355 -2.6775,13.8267 3.6511,9.6292 7.7889,19.0115 11.6832,28.6409 18.2553,43.4551 36.7538,86.9101 48.1938,133.0812 10.4664,41.2328 17.2817,83.2066 25.5573,124.6864 1.4605,4.9382 1.2171,10.3699 4.3813,14.5674 1.9473,-0.9877 0.2434,-6.9134 0.7301,-9.8762 0,-24.4435 -0.4867,-49.1339 -5.5983,-73.3305 0,-3.9504 -2.9207,-8.1478 -0.9735,-12.0983 9.2494,9.1354 15.8212,20.9869 18.2552,33.8259 3.8945,19.5053 0.4868,39.7516 -4.3812,58.7631 -1.4606,5.6788 -3.1642,11.3576 -4.868,17.0363 -4.8681,1.9753 -7.3022,-4.6911 -11.4399,-6.1725 -10.2229,-7.9009 -21.1761,-15.3081 -33.8331,-18.5179 -6.8153,-1.9752 -13.8739,-3.4567 -20.4458,-5.9256 -2.6774,-5.1849 -2.9208,-11.3575 -7.0586,-15.8019 -7.7889,-10.8638 -19.9591,-16.7894 -31.6424,-22.4682 -5.1114,-3.4568 -5.3549,-10.6169 -9.0059,-15.3081 -7.0588,-10.8638 -18.4987,-17.2832 -29.4517,-23.2089 -9.2494,-5.6789 -16.7947,-14.8143 -18.0118,-25.9251 -1.4604,-9.8761 -2.1908,-19.9991 -5.1115,-29.6284 -3.8943,-14.8142 -10.7096,-28.3939 -18.0118,-41.4798 -4.6246,-10.6168 -5.3549,-22.4682 -2.9208,-33.579 5.5983,-36.2948 8.2756,-73.0834 7.7888,-109.8721 0,-21.4806 -0.7301,-42.9613 -2.9208,-64.4419 -0.9735,-7.1603 -3.4075,-13.8267 -6.0849,-20.4932 -1.2172,5.6789 0.4867,11.3577 0.4867,17.2834 0.7302,7.9009 1.2169,16.0488 1.7038,23.9497 -3.1643,4.9381 -6.5718,-2.9629 -7.3021,-5.9258 -2.6773,-5.9257 -5.5982,-11.6044 -8.0321,-17.5302 -5.355,-0.4937 0,7.1602 0.2433,10.1231 5.3549,16.2957 10.2229,32.8382 13.3871,49.8747 2.6774,13.0858 4.1378,26.6655 3.651,39.9984 0,16.5425 -1.7037,33.0851 -4.868,49.3808 -1.9472,8.8885 -4.3813,17.777 -7.7888,26.1718 -4.1379,-1.9753 -2.921,-8.3948 -5.3549,-12.0983 -3.6511,-10.123 -8.5192,-19.5055 -12.9004,-29.1347 -4.1378,-8.6416 -9.4927,-17.0363 -16.7948,-23.4558 -21.176,-20.987 -44.2992,-40.2454 -67.4224,-59.2569 -2.9208,-0.7408 1.7036,5.1848 1.9471,6.9132 18.4987,39.9984 45.7597,74.8118 71.5604,110.366 9.2493,12.5922 18.2552,25.4311 26.7743,38.2701 0,3.9506 -4.8681,-1.7283 -6.8153,-1.7283 -18.742,-10.37 -37.484,-20.9869 -56.226,-31.3568 -4.8681,3.7037 2.434,7.6541 4.868,10.123 31.1556,27.6535 55.7394,61.9729 81.7834,94.5642 -1.4604,6.1726 -8.7626,2.716 -11.1967,-0.4937 -10.953,-7.654 -21.9061,-15.5549 -32.8592,-23.209 -1.9473,2.7161 1.2169,9.3823 -4.8681,8.1478 -2.9208,0.9876 -9.9796,0.4939 -10.223,2.716 20.4459,13.3328 41.3785,25.925 62.0678,39.2579 5.3548,3.4565 10.9531,6.9132 16.5513,10.1229 2.9208,4.6911 -4.6246,7.4071 -6.085,11.3576 -2.9207,4.9381 5.3548,3.7036 8.0323,4.9381 10.2229,2.469 20.4458,4.938 30.6687,7.1601 0.9735,4.4443 -3.4077,7.4072 -7.0586,4.9382 -15.8212,-2.9629 -31.399,-5.6788 -47.2202,-8.3948 -2.6774,5.4319 6.0851,5.4319 9.2492,7.654 25.314,10.37 50.3844,20.4931 75.9418,30.1224 4.3813,1.975 7.5454,7.654 4.8681,12.345 -2.9209,7.1604 -8.0324,13.0861 -11.9268,19.7524 -4.1378,6.6665 -8.5191,13.0858 -12.4136,19.7523 5.1115,-0.7407 9.4926,-3.9504 14.3607,-5.4319 15.0911,-5.9257 30.4255,-12.0983 45.5163,-18.2709 4.8681,1.4815 1.7038,7.4072 -0.2434,10.1231 -2.1905,4.1974 -4.3812,8.1478 -6.0849,12.5921 7.5453,-0.2468 14.8474,-1.9752 22.1495,-2.7159 6.0851,-0.7407 12.4136,-1.7284 18.4986,-2.2221 2.9209,4.4443 -5.5982,5.9256 -7.5454,8.8885 -1.9473,1.7283 -7.7889,4.4443 -7.0587,6.6664 3.4075,-0.7406 10.4664,0 6.3284,4.938 -0.7302,2.7161 -5.5983,8.3947 -2.1906,9.6293 6.8153,-1.2346 13.6306,-3.2096 20.4458,-4.4443 4.8681,0.4939 0.4868,7.1604 0.4868,10.37 -0.2434,5.6787 6.0851,-0.2469 8.5192,-0.9877 2.9208,-2.9628 10.4663,-2.4689 7.5454,2.9629 -2.9209,3.4568 -5.1114,7.6541 -7.7888,11.3576 -0.9736,1.9752 -6.0851,7.654 -1.217,5.432 3.4074,-1.4815 8.0321,-5.9258 11.1964,-1.4815 4.3813,4.6912 8.2756,10.6169 14.3608,13.3328 4.6247,0 8.0323,-5.6788 12.9003,-2.2221 7.5455,1.9752 15.0909,3.2097 22.6365,5.1849 1.7038,3.2099 1.9472,10.6171 7.0586,6.6664 4.1379,-1.4815 10.223,-0.2469 11.1965,4.4443 1.4604,2.9629 -0.7301,9.3824 2.4341,10.1231 4.6247,-2.2221 7.7888,-6.6664 12.6569,-7.901 5.8417,0.2469 6.0851,8.3947 10.9531,10.1231 4.868,0.7407 9.9796,-5.6787 14.6041,-1.4814 5.1115,5.1849 2.1907,14.3204 8.0324,19.0116 1.7038,1.4814 9.736,1.4814 5.1114,4.6912 -5.1114,1.7283 -6.5719,7.901 -2.434,11.6045 2.434,2.7158 3.1643,8.8884 6.5719,9.6292 2.9208,-2.9628 2.9208,-7.6541 5.1114,-11.1107 1.7039,-4.1973 3.4076,-8.3947 4.8681,-12.8389 -1.4605,-0.9878 -8.0323,-3.9506 -2.9208,-3.9506 14.8475,-0.2468 27.0176,-10.123 40.6482,-14.5673 13.1437,-4.1974 27.0176,-2.716 40.4048,-1.2346 5.1114,0.247 10.7098,0.7409 13.3872,5.9258 3.1642,3.9504 -0.7302,5.4318 -4.1379,4.9381 -5.3548,0.4937 -10.9532,0.2469 -16.308,0.9875 -5.8415,1.9754 1.217,6.1726 4.3813,5.9258 16.0646,4.4443 32.3726,8.8885 48.6805,12.8391 4.6247,1.4814 11.1965,2.9628 11.1965,8.8885 0,5.9258 -5.5983,9.3823 -10.4663,11.3575 -9.9795,3.4566 -20.2024,-0.2469 -29.9385,-1.9752 -2.9208,0 -9.7361,-3.7035 -7.5455,1.4814 1.7039,4.4442 1.4605,10.8638 6.8153,12.5921 4.868,1.4814 9.7361,-1.2345 14.8475,-1.2345 7.5456,-0.2469 14.8476,1.2345 22.1498,3.2098 3.8943,0.7407 9.0058,3.4566 7.5453,8.3948 -1.7037,6.1726 -4.6246,12.5919 -9.9794,16.5425 -2.434,4.4443 4.6245,8.6416 2.9209,13.8266 -0.2434,5.6787 -4.6247,9.8761 -9.2495,12.0982 -4.8681,4.1974 -4.1378,11.1108 -5.8415,16.7896 -1.217,5.1849 -2.6774,10.3699 -4.6248,15.3079 2.4341,6.1727 2.1908,14.5674 -3.4076,18.7648 -5.1114,4.4443 -11.9267,6.4193 -18.0117,9.1354 v 85.1819 c -9.7362,0 -19.4723,0.2469 -28.9649,-0.247 -1.7038,-25.9248 -3.4077,-51.8498 -5.8417,-77.7747 0.7301,-4.6912 -4.6247,-5.9256 -8.2757,-6.1726 -4.3813,-1.7283 -11.1965,-2.2222 -12.657,3.4568 -0.4868,10.3699 0.7302,20.9867 1.2171,31.3568 0.4868,7.407 0.9736,15.061 1.217,22.468 0.7302,6.4197 0.7302,12.5923 1.4604,19.0117 -0.7302,2.469 2.1906,8.6417 -1.7038,8.1479 h -34.3197 c -1.2171,-9.8762 -1.7039,-19.7524 -2.6775,-29.6285 -0.9737,-13.8266 -1.9472,-27.4063 -3.6511,-41.233 -1.7038,-3.9505 -2.6775,-13.0858 -8.519,-10.6169 -8.0323,2.9629 -15.5778,7.4072 -22.1497,13.086 -4.1378,3.2098 -9.0059,5.4318 -13.6305,8.1477 -4.1378,2.2223 -8.2757,4.6913 -12.4136,6.6665 -5.1114,0 -6.0851,-7.654 -11.4399,-7.1601 -4.1378,-0.7409 -11.1966,3.9504 -13.6305,-0.4939 -2.9209,-4.938 -11.6834,-1.4815 -13.1438,-7.654 -0.2434,-6.4195 -7.0586,-6.9133 -11.44,-9.3824 -39.1878,-19.0115 -78.3755,-38.517 -117.5633,-57.7754 -9.2494,-4.4442 -19.4723,-7.4072 -29.6952,-8.1479 -7.5455,-0.2469 -15.0909,-0.4938 -22.3931,1.2345 1.4605,3.2098 6.8154,1.4813 9.7362,3.2098 11.4399,2.9629 22.8798,6.9133 33.833,11.3576 5.5983,2.7159 11.44,5.1849 17.2816,7.9008 10.953,5.1851 21.4193,11.3577 32.1291,17.2833 11.4399,6.6664 22.6365,13.8266 34.0764,20.9869 10.2229,6.1725 21.4194,10.8638 29.4517,19.9992 4.1378,4.4443 7.5455,9.8761 9.9794,15.5548 3.8945,9.6293 6.5719,19.9994 8.2758,30.1224 0.4867,4.9381 1.217,9.8762 0.2434,14.8142 -1.4604,3.4567 -4.1379,-0.4937 -6.3284,0.7408 -4.6247,-1.9752 -5.8417,-7.654 -8.7626,-11.3577 -6.0851,-10.3699 -11.9267,-20.7398 -18.0118,-31.1098 -0.7302,-3.4567 -5.3548,-2.7159 -3.651,0.9876 1.7038,4.4443 2.434,9.1353 4.1378,13.8265 0.9736,3.7037 -1.217,2.716 -2.9208,0.494 -13.3871,-10.37 -26.5309,-20.987 -39.918,-31.3569 -1.9472,-0.9875 -5.1115,-5.1848 -6.5719,-3.9505 1.217,3.7036 4.1379,6.6665 5.5982,10.1232 10.223,16.5425 23.6102,30.8629 36.0236,45.6771 0.9737,2.2222 7.5455,6.4196 4.1378,7.6541 -122.1881,0.4938 -244.3761,0.247 -366.5643,0.247 -75.4548,0 -151.153,0 -226.6078,-0.247 -3.89443,-0.7408 0.9737,-5.9257 0.9737,-8.3947 11.9266,-33.579 25.5572,-66.911 44.786,-97.0333 0.9736,-2.2221 7.5455,-8.1478 1.7038,-7.6541 -13.6305,0.4939 -27.5044,1.7284 -41.1349,2.4691 -3.8945,0.2469 -7.789,0.4938 -11.92677,0.4938 -4.62468,2.2222 -3.40767,8.8885 -5.11149,13.086 -2.43404,11.1107 -5.11149,22.2212 -7.54545,33.3319 0.48673,2.716 -2.19063,5.4319 -2.67745,1.4815 -1.70382,-2.716 -2.19063,-9.6293 -5.8417,-9.1354 -3.89438,5.185 -7.30204,11.1105 -10.9531,16.5426 -1.21702,2.222 -4.38128,8.3947 -4.86809,3.2096 -2.92076,-3.2096 -0.73021,-8.3947 -1.46033,-12.3451 -0.2434,-14.3205 0,-28.641 -0.48681,-42.7144 -2.67745,-3.9505 -8.27574,0 -12.17012,-0.7408 -11.44001,0.9877 -23.12333,1.9753 -34.56324,3.2098 -3.65107,2.9628 0.48681,8.1479 -0.24341,11.8514 l 10.2229,74.0712 c 0.97362,5.9256 2.92085,11.6045 1.70382,17.5301 0.73022,0.2469 1.21703,-2.7158 0.73022,0 -3.40757,2.716 -8.76246,0 -12.90034,0.9878 -3.89438,0.9875 -9.24927,0 -8.27565,-5.1851 -2.67745,-29.6285 -4.8681,-59.2569 -7.78885,-88.8854 -1.21703,-3.4566 0.73012,-11.3576 -4.86809,-9.3824 l -27.0177,2.9629 c -3.16426,3.9505 -0.24341,9.3824 -1.46042,14.0735 0,22.7151 -0.24341,45.1835 -1.21703,67.8986 v 18.7647 h -19.22876 c -0.48681,-16.7895 -1.70383,-33.5789 -2.19064,-50.6153 -0.73021,-14.0735 -1.21702,-28.1471 -1.94723,-42.2206 0.24341,-3.2098 0,-8.6417 -4.62469,-6.6664 -17.28154,1.2345 -34.31973,1.9753 -51.60131,3.4566 -1.70383,5.185 2.19062,10.1231 2.67742,15.3081 3.40764,12.839 6.57187,25.925 10.95312,38.5169 1.70382,6.1727 1.21701,12.8391 -1.46042,18.7648 -1.70382,5.6789 0.97362,11.6045 1.94722,17.2832 2.43403,2.7161 1.46042,8.3948 -2.92083,6.4195 -14.60415,0.247 -29.20831,0 -43.81247,0 0,-9.8762 0,-19.7523 0.2434,-29.6284 z m 175.49327,24.9374 c -0.48682,-2.7159 -0.24341,3.2098 0,0 z m 707.57141,-15.3081 c -0.9736,-1.4814 0,1.4814 0,0 z m -146.5284,-2.7159 c -13.3872,-34.8135 -36.0235,-66.1702 -65.2318,-89.3793 -15.3345,-12.8389 -33.1029,-22.4682 -51.1148,-31.1098 -8.0322,-3.7035 -16.0644,-6.9133 -24.3401,-9.8762 -0.9737,2.469 5.3548,5.185 7.0587,7.4071 9.9795,8.6417 19.9589,17.0365 29.9385,25.678 5.8416,2.9629 0.4868,-8.8884 5.5982,-7.9009 3.4077,2.469 6.3286,5.4319 9.4927,8.3946 3.8944,4.9382 6.5718,10.8638 10.4664,15.802 11.1965,16.2957 25.0704,30.3691 39.1877,43.9489 8.5192,8.1478 17.0382,16.0487 25.314,24.1966 4.868,4.1974 8.7625,9.1355 13.8739,12.839 z m 145.0679,-5.6788 c -0.7302,-1.7283 -0.4868,1.4815 0,0 z m -56.226,-1.2346 c -1.4604,0 1.2171,1.7285 0,0 z m 25.5573,-0.2469 c -0.7302,0 0.7302,1.4815 0,0 z m -27.9913,-1.9751 c -0.9736,-1.2346 0.4868,1.4814 0,0 z m -62.0676,-42.7144 c 1.7037,-5.4318 -6.572,-6.1726 -9.0059,-9.8762 -8.2758,-6.4195 -16.5514,-12.5921 -25.0705,-18.7647 -4.3812,3.4566 3.1642,6.4195 5.3548,8.8885 8.0324,7.1603 16.308,14.3206 24.8271,21.2338 1.4605,0.9875 3.1642,0.4938 3.8945,-1.2345 z m 54.2787,-4.9382 c 4.6247,-3.9504 -1.7037,-7.9008 -5.3549,-9.3822 -14.8474,-9.3824 -29.6951,-18.5179 -44.2992,-27.9002 -2.1905,-4.1974 -10.7098,-1.9752 -7.0586,2.716 4.6246,3.4566 9.7361,5.9256 14.3606,9.3822 9.9797,6.6666 20.2025,13.086 30.4255,19.7524 4.1377,1.2345 7.3021,7.654 12.17,5.6788 z m -78.1321,-411.3419 c -2.9209,-30.863 -11.1966,-62.2197 -28.965,-87.6508 -2.6773,-3.7035 -6.8153,-9.6293 -9.2493,-11.1107 2.1907,7.654 5.5982,14.8143 8.0323,22.2214 9.7362,25.4311 19.2288,50.8621 28.9649,76.0464 0.2434,0.7406 1.7039,2.469 1.2171,0.4937 z m 41.3784,-19.9992 c -2.4342,-51.356 -11.9268,-102.712 -32.3726,-150.1175 -9.4927,-21.9745 -20.9327,-42.7144 -34.5632,-62.2198 -2.9209,-3.9506 -0.4867,3.7036 0.2434,5.185 10.7098,35.0603 21.4195,69.8737 32.3725,104.934 1.2171,3.4568 2.1907,6.9134 3.1644,10.3701 2.6773,-3.9505 0.7301,-11.3576 5.8417,-13.0859 5.3548,0.4938 3.4075,7.4071 4.868,10.8638 6.8152,34.0727 13.6305,67.8985 20.4458,101.9713 1.217,-2.716 0,-5.432 0.2433,-8.3948 z m -36.5103,-53.0843 c -6.0852,-32.3444 -17.0384,-64.4419 -36.2671,-91.6014 -7.0587,-9.3823 -15.091,-18.2709 -24.8271,-24.9373 -3.8945,-1.2345 0.9736,3.9506 1.2171,5.6788 19.2287,36.048 38.4574,71.849 57.6863,107.897 0.4869,0.4938 2.1908,4.9381 1.9473,2.9629 z m -797.38707,-52.5906 c 3.16423,-8.6416 5.35485,-18.5177 1.21701,-27.1593 -2.43403,-3.9505 -1.46042,3.4566 -1.70382,4.938 0,7.654 0,15.308 0.2434,23.209 l 0.24341,-0.4938 z m 698.32197,-41.2329 c -0.4867,-29.3816 -9.2492,-58.0225 -19.959,-84.935 -11.4399,-27.4063 -26.2874,-53.825 -45.7597,-76.0464 -5.3548,-5.9256 -10.953,-11.3575 -17.2815,-16.2956 -2.9209,2.7159 3.4076,8.3948 0.2434,9.8761 -4.6246,-1.7282 -8.5191,-5.1849 -12.9003,-6.9133 -1.7039,-0.9876 -6.0851,-4.1974 -6.8153,-2.2221 27.0177,35.8011 57.1996,69.6268 77.8888,109.8722 11.6833,22.2214 20.2024,46.418 23.6101,71.3552 1.9472,5.9258 0.7302,-3.2097 0.9735,-4.6911 z M 703.65874,1200.742 c 0,-5.1851 0.2434,-10.6168 -0.24341,-15.8019 -6.32846,4.1974 -10.70971,11.3576 -12.41353,19.0115 -1.94722,10.617 2.67743,21.4808 8.76249,29.8756 0.73021,1.9751 4.38124,5.4317 3.40764,1.2345 0.2434,-11.3577 0.2434,-22.7153 0.48681,-34.3197 z m 746.51586,9.1353 c -8.2758,-20.4929 -16.5515,-41.2329 -24.827,-61.7259 -1.2172,-4.4442 -2.1908,-0.2468 -1.7039,1.9753 0,17.777 7.302,34.8134 17.525,49.1338 2.9208,4.1975 5.5981,8.3947 9.2492,11.8514 0.2434,-0.4938 0,-0.9877 -0.2433,-1.2346 z m -109.2878,-31.6036 c 5.5983,-1.7283 1.4603,-7.4071 -0.9737,-10.123 -13.3872,-21.2339 -26.5309,-42.4675 -39.918,-63.4544 -4.6246,0.7407 -5.1114,5.9257 -1.4604,8.1478 l 40.8915,65.1827 c 0.2435,0.4937 0.9737,0.7407 1.2172,0.2469 z m -292.8133,-151.599 c -1.2171,-0.4938 0.7301,2.469 0,0 z m 51.6013,-55.30647 c -3.8945,-5.43188 -9.4927,-9.38237 -13.874,-14.32043 -8.7625,-8.64164 -17.525,-17.28326 -26.5309,-25.43108 -1.4604,3.95041 1.9473,8.14782 2.6775,12.09831 2.6773,7.16016 5.3548,15.06106 10.953,20.49294 7.3022,6.66643 17.525,8.64172 27.0178,7.40717 z"
       fill="#ffffff"
       stroke-width="0.326862"
       style="opacity:1;fill:#6699ff"
       sodipodi:nodetypes="cccccccccscsccccccccccccccccccccccccccccccccccscccccccccccccccccccccccccccccccccccccccccccccccccccccccccccccccccccccccccccccccccccccccccccccccccccccccccccccccccccccccccccccccccccccccccccccccccccccccccccccccccccccccccccccccccccccccccccccccccccccccccccccccccccccccccccccccccccccccccccccccccccccccccccscccccccccccccccccccccccccccccccccccccccccccccccccccccccccsccccccccccccccccccccccccccccccccccccccccccccccccccccccccccccccccccccccccccccccccccccccccccccccccccccccccccccccccccccccccccccccccccccccccccccccccccccc" />
  </g>
</svg>
